<svg width="60" height="60" viewBox="0 0 60 60" fill="none" xmlns="http://www.w3.org/2000/svg">
<rect width="60" height="60" rx="8" fill="url(#paint0_linear_25_969)"/>
<path d="M31.125 32.25V30H28.875V32.25H15.375V39H17.625V34.5H28.875V39H31.125V34.5H42.375V39H44.625V32.25H31.125Z" fill="#040C0B"/>
<path d="M16.5 48C15.6049 48 14.7464 47.6444 14.1135 47.0115C13.4806 46.3786 13.125 45.5201 13.125 44.625C13.125 43.7299 13.4806 42.8714 14.1135 42.2385C14.7464 41.6056 15.6049 41.25 16.5 41.25C17.3951 41.25 18.2536 41.6056 18.8865 42.2385C19.5194 42.8714 19.875 43.7299 19.875 44.625C19.875 45.5201 19.5194 46.3786 18.8865 47.0115C18.2536 47.6444 17.3951 48 16.5 48ZM16.5 43.5C16.2016 43.5 15.9155 43.6185 15.7045 43.8295C15.4935 44.0405 15.375 44.3266 15.375 44.625C15.375 44.9234 15.4935 45.2095 15.7045 45.4205C15.9155 45.6315 16.2016 45.75 16.5 45.75C16.7984 45.75 17.0845 45.6315 17.2955 45.4205C17.5065 45.2095 17.625 44.9234 17.625 44.625C17.625 44.3266 17.5065 44.0405 17.2955 43.8295C17.0845 43.6185 16.7984 43.5 16.5 43.5ZM30 48C29.1049 48 28.2464 47.6444 27.6135 47.0115C26.9806 46.3786 26.625 45.5201 26.625 44.625C26.625 43.7299 26.9806 42.8714 27.6135 42.2385C28.2464 41.6056 29.1049 41.25 30 41.25C30.8951 41.25 31.7536 41.6056 32.3865 42.2385C33.0194 42.8714 33.375 43.7299 33.375 44.625C33.375 45.5201 33.0194 46.3786 32.3865 47.0115C31.7536 47.6444 30.8951 48 30 48ZM30 43.5C29.7016 43.5 29.4155 43.6185 29.2045 43.8295C28.9935 44.0405 28.875 44.3266 28.875 44.625C28.875 44.9234 28.9935 45.2095 29.2045 45.4205C29.4155 45.6315 29.7016 45.75 30 45.75C30.2984 45.75 30.5845 45.6315 30.7955 45.4205C31.0065 45.2095 31.125 44.9234 31.125 44.625C31.125 44.3266 31.0065 44.0405 30.7955 43.8295C30.5845 43.6185 30.2984 43.5 30 43.5ZM43.5 48C42.6049 48 41.7464 47.6444 41.1135 47.0115C40.4806 46.3786 40.125 45.5201 40.125 44.625C40.125 43.7299 40.4806 42.8714 41.1135 42.2385C41.7464 41.6056 42.6049 41.25 43.5 41.25C44.3951 41.25 45.2536 41.6056 45.8865 42.2385C46.5194 42.8714 46.875 43.7299 46.875 44.625C46.875 45.5201 46.5194 46.3786 45.8865 47.0115C45.2536 47.6444 44.3951 48 43.5 48ZM43.5 43.5C43.2016 43.5 42.9155 43.6185 42.7045 43.8295C42.4935 44.0405 42.375 44.3266 42.375 44.625C42.375 44.9234 42.4935 45.2095 42.7045 45.4205C42.9155 45.6315 43.2016 45.75 43.5 45.75C43.7984 45.75 44.0845 45.6315 44.2955 45.4205C44.5065 45.2095 44.625 44.9234 44.625 44.625C44.625 44.3266 44.5065 44.0405 44.2955 43.8295C44.0845 43.6185 43.7984 43.5 43.5 43.5ZM37.875 21V18.75H35.5125C35.3668 18.0474 35.0881 17.3791 34.6912 16.7812L36.3675 15.105L34.77 13.5075L33.0938 15.1837C32.4959 14.7869 31.8276 14.5082 31.125 14.3625V12H28.875V14.3625C28.1724 14.5082 27.5041 14.7869 26.9062 15.1837L25.23 13.5075L23.6325 15.105L25.3088 16.7812C24.9119 17.3791 24.6332 18.0474 24.4875 18.75H22.125V21H24.4875C24.6332 21.7026 24.9119 22.3709 25.3088 22.9688L23.6325 24.645L25.2188 26.2312L26.895 24.555C27.4954 24.9571 28.1677 25.2398 28.875 25.3875V27.75H31.125V25.3875C31.8276 25.2418 32.4959 24.9631 33.0938 24.5662L34.77 26.2425L36.3562 24.6562L34.6912 22.9688C35.0881 22.3709 35.3668 21.7026 35.5125 21H37.875ZM30 23.25C29.5568 23.25 29.1179 23.1627 28.7084 22.9931C28.299 22.8235 27.9269 22.5749 27.6135 22.2615C27.3001 21.9481 27.0515 21.576 26.8819 21.1666C26.7123 20.7571 26.625 20.3182 26.625 19.875C26.625 19.4318 26.7123 18.9929 26.8819 18.5834C27.0515 18.174 27.3001 17.8019 27.6135 17.4885C27.9269 17.1751 28.299 16.9265 28.7084 16.7569C29.1179 16.5873 29.5568 16.5 30 16.5C30.8951 16.5 31.7536 16.8556 32.3865 17.4885C33.0194 18.1214 33.375 18.9799 33.375 19.875C33.375 20.7701 33.0194 21.6286 32.3865 22.2615C31.7536 22.8944 30.8951 23.25 30 23.25Z" fill="#040C0B"/>
<path d="M30 21C29.7017 21 29.4155 20.8815 29.2045 20.6705C28.9936 20.4596 28.875 20.1734 28.875 19.875C28.8696 19.8001 28.8696 19.7249 28.875 19.65C28.8875 19.5796 28.9102 19.5114 28.9425 19.4475C28.9669 19.3757 29.001 19.3076 29.0438 19.245C29.0854 19.1861 29.1305 19.1298 29.1788 19.0763C29.2844 18.9721 29.4109 18.8916 29.55 18.84C29.7549 18.7539 29.9807 18.7303 30.1989 18.7724C30.4172 18.8144 30.6181 18.9202 30.7763 19.0763L30.9113 19.245C30.9536 19.3079 30.9877 19.3759 31.0125 19.4475C31.061 19.5083 31.0991 19.5767 31.125 19.65C31.1309 19.7249 31.1309 19.8002 31.125 19.875C31.125 20.1734 31.0065 20.4596 30.7955 20.6705C30.5845 20.8815 30.2984 21 30 21Z" fill="#040C0B"/>
<defs>
<linearGradient id="paint0_linear_25_969" x1="4.0191" y1="-0.186603" x2="56.8445" y2="57.892" gradientUnits="userSpaceOnUse">
<stop stop-color="#FEEA53"/>
<stop offset="1" stop-color="#F1B306"/>
</linearGradient>
</defs>
</svg>
