<svg width="60" height="60" viewBox="0 0 60 60" fill="none" xmlns="http://www.w3.org/2000/svg">
<rect width="60" height="60" rx="8" fill="url(#paint0_linear_25_10828)"/>
<path d="M30 25.25C28.7402 25.25 27.532 25.7504 26.6412 26.6412C25.7504 27.532 25.25 28.7402 25.25 30C25.25 31.2598 25.7504 32.468 26.6412 33.3588C27.532 34.2496 28.7402 34.75 30 34.75C31.2598 34.75 32.4679 34.2496 33.3587 33.3588C34.2495 32.468 34.75 31.2598 34.75 30C34.75 28.7402 34.2495 27.532 33.3587 26.6412C32.4679 25.7504 31.2598 25.25 30 25.25ZM30 37.9167C27.9003 37.9167 25.8867 37.0826 24.4021 35.5979C22.9174 34.1133 22.0833 32.0996 22.0833 30C22.0833 27.9004 22.9174 25.8867 24.4021 24.4021C25.8867 22.9174 27.9003 22.0833 30 22.0833C32.0996 22.0833 34.1132 22.9174 35.5979 24.4021C37.0826 25.8867 37.9166 27.9004 37.9166 30C37.9166 32.0996 37.0826 34.1133 35.5979 35.5979C34.1132 37.0826 32.0996 37.9167 30 37.9167ZM30 18.125C22.0833 18.125 15.3225 23.0492 12.5833 30C15.3225 36.9508 22.0833 41.875 30 41.875C37.9166 41.875 44.6775 36.9508 47.4166 30C44.6775 23.0492 37.9166 18.125 30 18.125Z" fill="#040C0B"/>
<defs>
<linearGradient id="paint0_linear_25_10828" x1="4.0191" y1="-0.186603" x2="56.8445" y2="57.892" gradientUnits="userSpaceOnUse">
<stop stop-color="#FEEA53"/>
<stop offset="1" stop-color="#F1B306"/>
</linearGradient>
</defs>
</svg>
