<svg width="32" height="32" viewBox="0 0 32 32" fill="none" xmlns="http://www.w3.org/2000/svg">
<path d="M15.3734 2.66663C15.3734 5.86663 18 8.46663 21.1734 8.46663H23.5467V10.7333C23.5467 13.9333 26.1334 16.52 29.3334 16.5333V3.78663C29.3334 3.48958 29.2154 3.20471 29.0053 2.99467C28.7953 2.78463 28.5104 2.66663 28.2134 2.66663H15.3734ZM9.02669 9.06663C9.0337 10.5992 9.64562 12.067 10.7293 13.1507C11.813 14.2344 13.2808 14.8463 14.8134 14.8533H17.2134V17.1466C17.2204 18.6792 17.8323 20.147 18.916 21.2307C19.9997 22.3144 21.4675 22.9263 23 22.9333V10.1733C22.9966 9.88086 22.8789 9.60138 22.6721 9.39459C22.4653 9.18779 22.1858 9.07009 21.8934 9.06663H9.02669ZM2.66669 15.4666C2.66669 18.6666 5.26669 21.2533 8.46669 21.2533H10.84V23.5466C10.8534 26.7333 13.44 29.3333 16.6267 29.3333V16.5733C16.6267 16.2762 16.5087 15.9914 16.2986 15.7813C16.0886 15.5713 15.8037 15.4533 15.5067 15.4533L2.66669 15.4666Z" fill="white"/>
</svg>
