<svg width="32" height="32" viewBox="0 0 32 32" fill="none" xmlns="http://www.w3.org/2000/svg">
<path d="M14.4267 11.236C13.4134 9.78932 13.032 8.73999 12.9494 7.97599C12.8707 7.25599 13.0467 6.68266 13.396 6.13199C13.7734 5.53599 14.34 4.98266 15.06 4.32799C15.7334 3.71732 16.576 2.99066 17.2374 2.16799L15.16 0.498657C14.6054 1.18799 13.9227 1.76132 13.2694 2.35332C12.5574 2.99999 11.7374 3.76932 11.1454 4.70532C10.524 5.68532 10.1454 6.85332 10.2987 8.26532C10.448 9.63332 11.0827 11.108 12.2427 12.7653L14.4267 11.236ZM16.0934 7.19599C16.472 6.28399 17.2414 5.36932 18.4667 4.32132L20.2 6.34532C19.092 7.29599 18.6947 7.88266 18.5534 8.22132C18.4147 8.55466 18.5067 8.88666 18.6 9.21732C18.712 9.61199 18.8974 10.2707 18.8854 10.98C18.8694 11.9213 18.5467 12.916 17.776 14.0733L15.5574 12.5933C16.12 11.7507 16.2134 11.2467 16.2187 10.936C16.2254 10.5427 16.1227 10.3227 15.956 9.65599C15.796 9.01866 15.6774 8.19332 16.0934 7.19599ZM8.18802 13.3333C8.81469 12.9147 9.58802 12.7013 10.3107 12.528L9.68802 9.93332C8.60402 10.1947 7.62002 10.5467 6.87202 11.0093C6.19202 11.4307 5.33335 12.1813 5.33335 13.3333C5.33335 14.3013 5.98135 15.0747 6.75335 15.5813C6.69546 15.8314 6.66638 16.0873 6.66669 16.344C6.66669 17.6507 7.22402 18.7533 8.19069 19.5707C8.04802 19.9707 7.98402 20.416 8.00402 20.8613C6.96802 21.0627 5.95602 21.3587 5.11069 21.7467C4.53469 22.0107 3.96669 22.348 3.52402 22.7827C3.07869 23.2213 2.66669 23.8547 2.66669 24.6667C2.66669 25.236 2.91869 25.696 3.16535 26.0133C3.41735 26.336 3.74135 26.612 4.07735 26.8453C4.75202 27.3133 5.65602 27.7373 6.68935 28.0933C8.76669 28.8107 11.5814 29.3333 14.6667 29.3333C19.1027 29.3333 22.2174 28.8213 24.2534 28.2907C25.0271 28.0941 25.7862 27.8442 26.5254 27.5427C26.8054 27.4253 27.0854 27.3013 27.3467 27.1467C27.36 27.1387 25.976 24.86 25.9814 24.856C25.2294 25.248 24.3974 25.496 23.5814 25.7093C21.7827 26.1787 18.8974 26.6667 14.6667 26.6667C11.8614 26.6667 9.34269 26.1893 7.56002 25.5733C6.85069 25.328 6.10935 25.0427 5.50535 24.5867C5.65869 24.4667 5.89202 24.3213 6.22269 24.1707C6.96669 23.8293 7.98669 23.5493 9.07602 23.3827C9.38002 23.7067 9.74535 23.992 10.1614 24.236C11.448 24.9853 13.2174 25.3333 15.3334 25.3333C17.08 25.3333 18.344 25.1573 19.1974 24.968C19.672 24.864 20.1494 24.7453 20.5867 24.5307C20.5907 24.528 19.412 22.1373 19.412 22.1373C19.1534 22.2307 18.8894 22.3053 18.6214 22.364C17.9694 22.5093 16.9014 22.6667 15.3334 22.6667C13.4494 22.6667 12.2187 22.3467 11.5054 21.932C10.9374 21.6013 10.72 21.2333 10.676 20.8333C11.8334 21.1707 13.2027 21.3333 14.7507 21.3333C16.7014 21.3333 18.108 21.1427 19.0547 20.9373C19.5694 20.8267 20.088 20.6987 20.5667 20.476C20.5934 20.4627 19.424 18.0667 19.424 18.0667C19.1207 18.1802 18.8085 18.2685 18.4907 18.3307C17.744 18.492 16.5267 18.6667 14.7494 18.6667C12.612 18.6667 11.1894 18.3147 10.3467 17.836C9.71869 17.4787 9.44269 17.0787 9.36002 16.6493C11.0134 17.084 13.1 17.3333 15.3334 17.3333C17.756 17.3333 20.0027 17.04 21.7107 16.536L20.956 13.9787C19.5507 14.3933 17.5694 14.6667 15.3334 14.6667C13.0347 14.6667 11.0067 14.3787 9.59735 13.944C8.93069 13.74 8.46935 13.5227 8.18935 13.3333M23.4534 14.328C25.0707 14.1813 25.6667 14.5787 25.8587 14.784C26.0574 14.9973 26.1267 15.328 26.04 15.6773C25.8854 16.296 25.4494 16.896 24.7427 17.448C24.0374 17.9987 23.1427 18.4347 22.2454 18.7347L23.088 21.264C24.192 20.896 25.3787 20.3333 26.3827 19.5507C27.3827 18.7693 28.2814 17.704 28.6267 16.324C28.8734 15.3373 28.776 14.0027 27.808 12.964C26.8347 11.9213 25.2627 11.4853 23.212 11.672L23.4534 14.328Z" fill="white"/>
</svg>
