<svg width="32" height="32" viewBox="0 0 32 32" fill="none" xmlns="http://www.w3.org/2000/svg">
<path fill-rule="evenodd" clip-rule="evenodd" d="M4.32818 4.4573C4.5814 4.16676 4.94794 4 5.33334 4H26.6667C27.0521 4 27.4186 4.16676 27.6718 4.4573C27.925 4.74784 28.0402 5.13373 27.9875 5.51552L25.3208 24.8489C25.2515 25.3514 24.903 25.7711 24.4216 25.9316L16.4216 28.5982C16.148 28.6895 15.8521 28.6895 15.5784 28.5982L7.57837 25.9316C7.09706 25.7711 6.7485 25.3514 6.67918 24.8489L4.01251 5.51552C3.95985 5.13373 4.07497 4.74784 4.32818 4.4573ZM6.86321 6.66667L9.20763 23.6638L16 25.9279L22.7924 23.6638L25.1368 6.66667H6.86321Z" fill="white"/>
<path fill-rule="evenodd" clip-rule="evenodd" d="M8.66669 10.6667C8.66669 9.93033 9.26364 9.33337 10 9.33337H14C14.7364 9.33337 15.3334 9.93033 15.3334 10.6667V21.3334C15.3334 21.7955 15.0941 22.2246 14.701 22.4676C14.3079 22.7105 13.8171 22.7326 13.4037 22.5259L10.7371 21.1926C10.0784 20.8633 9.81147 20.0624 10.1408 19.4038C10.4701 18.7451 11.271 18.4782 11.9296 18.8075L12.6667 19.176V12H10C9.26364 12 8.66669 11.4031 8.66669 10.6667ZM17.2525 9.91916C17.6275 9.54408 18.1363 9.33337 18.6667 9.33337H22C22.7364 9.33337 23.3334 9.93033 23.3334 10.6667C23.3334 11.4031 22.7364 12 22 12H19.3334V14.6667H20.564C20.8503 14.6668 21.1334 14.7282 21.3939 14.8471C21.6544 14.9659 21.8863 15.1392 22.074 15.3553C22.2617 15.5715 22.4008 15.8254 22.4819 16.1C22.5631 16.3745 22.5843 16.6633 22.5442 16.9467L22.544 16.9483L21.9867 20.855C21.9101 21.3918 21.5161 21.8287 20.9901 21.9602L18.3234 22.6269C17.609 22.8055 16.8851 22.3711 16.7065 21.6568C16.5279 20.9424 16.9622 20.2184 17.6766 20.0399L19.4734 19.5907L19.7954 17.3334H18.6667C18.1363 17.3334 17.6275 17.1227 17.2525 16.7476C16.8774 16.3725 16.6667 15.8638 16.6667 15.3334V11.3334C16.6667 10.8029 16.8774 10.2942 17.2525 9.91916Z" fill="white"/>
</svg>
