<svg width="32" height="32" viewBox="0 0 32 32" fill="none" xmlns="http://www.w3.org/2000/svg">
<path d="M8.3491 23.68H5.77456C5.09175 23.68 4.4369 23.4102 3.95408 22.9301C3.47126 22.4501 3.20001 21.7989 3.20001 21.12V12.5866C3.20001 11.9077 3.47126 11.2565 3.95408 10.7764C4.4369 10.2963 5.09175 10.0266 5.77456 10.0266H16.9309V8.31995H15.2146V6.61328H13.4982V8.31995H10.0655V5.75995C10.0655 5.081 10.3367 4.42985 10.8195 3.94976C11.3024 3.46966 11.9572 3.19995 12.64 3.19995H19.5055C20.1883 3.19995 20.8431 3.46966 21.3259 3.94976C21.8088 4.42985 22.08 5.081 22.08 5.75995V14.2933C22.08 14.5196 21.9896 14.7367 21.8287 14.8967C21.6677 15.0567 21.4494 15.1466 21.2218 15.1466H10.9236C10.2408 15.1466 9.58599 15.4163 9.10317 15.8964C8.62035 16.3765 8.3491 17.0277 8.3491 17.7066V23.68Z" fill="white"/>
<path d="M23.6509 8.31995V14.2933C23.6509 14.9722 23.3796 15.6234 22.8968 16.1035C22.414 16.5836 21.7592 16.8533 21.0763 16.8533H10.7782C10.5506 16.8533 10.3323 16.9432 10.1713 17.1032C10.0104 17.2632 9.91998 17.4803 9.91998 17.7066V26.2399C9.91998 26.9189 10.1912 27.57 10.674 28.0501C11.1569 28.5302 11.8117 28.7999 12.4945 28.7999H19.36C20.0428 28.7999 20.6976 28.5302 21.1805 28.0501C21.6633 27.57 21.9345 26.9189 21.9345 26.2399V23.6799H18.5018V25.3866H16.7854V23.6799H15.0691V21.9733H26.2254C26.9082 21.9733 27.5631 21.7036 28.0459 21.2235C28.5287 20.7434 28.8 20.0922 28.8 19.4133V10.8799C28.8 10.201 28.5287 9.54985 28.0459 9.06975C27.5631 8.58966 26.9082 8.31995 26.2254 8.31995H23.6509Z" fill="white"/>
</svg>
