<svg width="32" height="32" viewBox="0 0 32 32" fill="none" xmlns="http://www.w3.org/2000/svg">
<g clip-path="url(#clip0_25_913)">
<rect width="32" height="32" rx="8" fill="#040C0B"/>
<path d="M26.666 0H5.334C3.92063 0.00422061 2.56636 0.567549 1.56695 1.56695C0.567549 2.56636 0.00422061 3.92063 0 5.334L0 26.666C0 29.6 2.4 32 5.334 32H26.666C29.602 32 32 29.6 32 26.666V5.334C31.9963 3.92047 31.4331 2.56589 30.4336 1.56637C29.4341 0.566856 28.0795 0.00369552 26.666 0ZM8 8H24C24.286 8 24.562 8.062 24.818 8.176L16 18.462L7.182 8.176C7.43886 8.05926 7.71786 7.99923 8 8ZM6 22V10L6.004 9.874L11.868 16.716L6.068 22.516C6.02219 22.3479 5.99931 22.1743 6 22ZM24 24H8C7.824 24 7.65 23.976 7.484 23.932L13.176 18.24L16.002 21.536L18.828 18.24L24.52 23.932C24.3518 23.9778 24.1783 24.0007 24.004 24H24ZM26 22C26 22.176 25.976 22.35 25.932 22.516L20.132 16.716L25.996 9.874L26 10V22Z" fill="#FEEA53"/>
</g>
<defs>
<clipPath id="clip0_25_913">
<rect width="32" height="32" fill="white"/>
</clipPath>
</defs>
</svg>
