<svg width="60" height="60" viewBox="0 0 60 60" fill="none" xmlns="http://www.w3.org/2000/svg">
<rect width="60" height="60" rx="8" fill="url(#paint0_linear_25_10540)"/>
<path d="M20.6083 42.075C19.8673 42.816 18.6659 42.816 17.9249 42.075C17.1839 41.3341 17.1839 40.1327 17.9249 39.3917L25.9024 31.4143C26.6834 30.6332 26.6834 29.3669 25.9024 28.5858L17.9249 20.6084C17.1839 19.8674 17.1839 18.666 17.9249 17.925C18.6659 17.1841 19.8673 17.1841 20.6083 17.925L28.5857 25.9025C29.3668 26.6835 30.6331 26.6835 31.4141 25.9025L39.3916 17.925C40.1326 17.1841 41.3339 17.1841 42.0749 17.925C42.8159 18.666 42.8159 19.8674 42.0749 20.6084L34.0975 28.5858C33.3164 29.3669 33.3164 30.6332 34.0975 31.4143L42.0749 39.3917C42.8159 40.1327 42.8159 41.3341 42.0749 42.075C41.3339 42.816 40.1326 42.816 39.3916 42.075L31.4141 34.0976C30.6331 33.3165 29.3668 33.3165 28.5857 34.0976L20.6083 42.075Z" fill="#040C0B"/>
<defs>
<linearGradient id="paint0_linear_25_10540" x1="4.0191" y1="-0.186603" x2="56.8445" y2="57.892" gradientUnits="userSpaceOnUse">
<stop stop-color="#FEEA53"/>
<stop offset="1" stop-color="#F1B306"/>
</linearGradient>
</defs>
</svg>
