<svg width="74" height="74" viewBox="0 0 74 74" fill="none" xmlns="http://www.w3.org/2000/svg">
<path d="M61.8594 32.375H41.625C39.7851 32.375 38.0205 31.6441 36.7194 30.3431C35.4184 29.042 34.6875 27.2774 34.6875 25.4375V5.20312C34.6875 5.0498 34.6266 4.90275 34.5182 4.79433C34.4098 4.68591 34.2627 4.625 34.1094 4.625H20.8125C18.3592 4.625 16.0065 5.59955 14.2718 7.33426C12.5371 9.06897 11.5625 11.4217 11.5625 13.875V60.125C11.5625 62.5783 12.5371 64.931 14.2718 66.6657C16.0065 68.4004 18.3592 69.375 20.8125 69.375H53.1875C55.6408 69.375 57.9935 68.4004 59.7282 66.6657C61.4629 64.931 62.4375 62.5783 62.4375 60.125V32.9531C62.4375 32.7998 62.3766 32.6527 62.2682 32.5443C62.1598 32.4359 62.0127 32.375 61.8594 32.375Z" fill="#040C0B"/>
<path d="M60.5904 27.2572L39.8054 6.47212C39.7649 6.43194 39.7135 6.4046 39.6576 6.39355C39.6017 6.3825 39.5438 6.38822 39.4911 6.41C39.4384 6.43178 39.3934 6.46864 39.3616 6.51595C39.3298 6.56326 39.3127 6.61892 39.3125 6.67591V25.4375C39.3125 26.0508 39.5561 26.639 39.9898 27.0727C40.4235 27.5064 41.0117 27.75 41.625 27.75H60.3866C60.4436 27.7498 60.4992 27.7327 60.5466 27.7009C60.5939 27.6691 60.6307 27.6241 60.6525 27.5714C60.6743 27.5187 60.68 27.4608 60.669 27.4049C60.6579 27.349 60.6306 27.2976 60.5904 27.2572Z" fill="#040C0B"/>
</svg>
