<svg width="44" height="44" viewBox="0 0 44 44" fill="none" xmlns="http://www.w3.org/2000/svg">
<rect width="44" height="44" rx="8" fill="url(#paint0_linear_79_13132)"/>
<path d="M15.1128 30.855C14.5694 31.3984 13.6884 31.3984 13.145 30.855C12.6016 30.3116 12.6016 29.4306 13.145 28.8872L18.618 23.4142C19.3991 22.6332 19.399 21.3669 18.618 20.5858L13.145 15.1128C12.6016 14.5694 12.6016 13.6884 13.145 13.145C13.6884 12.6016 14.5694 12.6016 15.1128 13.145L20.5858 18.618C21.3668 19.3991 22.6332 19.3991 23.4142 18.618L28.8872 13.145C29.4306 12.6016 30.3116 12.6016 30.855 13.145C31.3984 13.6884 31.3984 14.5694 30.855 15.1128L25.382 20.5858C24.6009 21.3669 24.6009 22.6332 25.382 23.4142L30.855 28.8872C31.3984 29.4306 31.3984 30.3116 30.855 30.855C30.3116 31.3984 29.4306 31.3984 28.8872 30.855L23.4142 25.382C22.6332 24.601 21.3668 24.601 20.5858 25.382L15.1128 30.855Z" fill="#040C0B"/>
<defs>
<linearGradient id="paint0_linear_79_13132" x1="2.94734" y1="-0.136842" x2="41.686" y2="42.4541" gradientUnits="userSpaceOnUse">
<stop stop-color="#FEEA53"/>
<stop offset="1" stop-color="#F1B306"/>
</linearGradient>
</defs>
</svg>
