<svg width="124" height="124" viewBox="0 0 124 124" fill="none" xmlns="http://www.w3.org/2000/svg">
<rect width="124" height="124" rx="8" fill="url(#paint0_linear_64_12454)"/>
<path fill-rule="evenodd" clip-rule="evenodd" d="M36.4679 36.7503C37.0218 36.1148 37.8236 35.75 38.6667 35.75H85.3333C86.1764 35.75 86.9782 36.1148 87.5321 36.7503C88.086 37.3859 88.3378 38.23 88.2227 39.0652L82.3893 81.3569C82.2377 82.4563 81.4752 83.3744 80.4223 83.7253L62.9223 89.5587C62.3237 89.7582 61.6764 89.7582 61.0777 89.5587L43.5777 83.7253C42.5248 83.3744 41.7624 82.4563 41.6107 81.3569L35.7774 39.0652C35.6622 38.23 35.914 37.3859 36.4679 36.7503ZM42.0133 41.5833L47.1417 78.7645L62 83.7172L76.8583 78.7645L81.9868 41.5833H42.0133Z" fill="#040C0B"/>
<path fill-rule="evenodd" clip-rule="evenodd" d="M45.9584 50.3333C45.9584 48.7225 47.2642 47.4167 48.875 47.4167H57.625C59.2359 47.4167 60.5417 48.7225 60.5417 50.3333V73.6667C60.5417 74.6775 60.0183 75.6163 59.1584 76.1477C58.2985 76.6792 57.2248 76.7275 56.3207 76.2754L50.4873 73.3587C49.0466 72.6384 48.4626 70.8864 49.183 69.4456C49.9033 68.0049 51.6553 67.4209 53.0961 68.1413L54.7084 68.9474V53.25H48.875C47.2642 53.25 45.9584 51.9442 45.9584 50.3333ZM64.7398 48.6981C65.5603 47.8776 66.6731 47.4167 67.8334 47.4167H75.125C76.7359 47.4167 78.0417 48.7225 78.0417 50.3333C78.0417 51.9442 76.7359 53.25 75.125 53.25H69.2917V59.0833H71.9838C72.61 59.0834 73.2294 59.218 73.7991 59.4778C74.3689 59.7377 74.8762 60.1169 75.2868 60.5897C75.6974 61.0625 76.0018 61.618 76.1792 62.2185C76.3567 62.8191 76.4032 63.4508 76.3155 64.0708L76.315 64.0744L75.0958 72.6203C74.9283 73.7944 74.0664 74.7502 72.9158 75.0379L67.0824 76.4962C65.5197 76.8869 63.9361 75.9368 63.5455 74.3741C63.1548 72.8113 64.1049 71.2278 65.6676 70.8371L69.598 69.8545L70.3024 64.9167H67.8334C66.6731 64.9167 65.5603 64.4557 64.7398 63.6353C63.9193 62.8148 63.4584 61.702 63.4584 60.5417V51.7917C63.4584 50.6314 63.9193 49.5185 64.7398 48.6981Z" fill="#040C0B"/>
<defs>
<linearGradient id="paint0_linear_64_12454" x1="8.30615" y1="-0.385647" x2="117.479" y2="119.643" gradientUnits="userSpaceOnUse">
<stop stop-color="#FEEA53"/>
<stop offset="1" stop-color="#F1B306"/>
</linearGradient>
</defs>
</svg>
