<svg width="124" height="124" viewBox="0 0 124 124" fill="none" xmlns="http://www.w3.org/2000/svg">
<rect width="124" height="124" rx="8" fill="url(#paint0_linear_64_12452)"/>
<path d="M58.5584 51.5788C56.3417 48.4142 55.5075 46.1187 55.3267 44.4475C55.1546 42.8725 55.5396 41.6183 56.3038 40.4137C57.1292 39.11 58.3688 37.8996 59.9438 36.4675C61.4167 35.1317 63.26 33.5421 64.7067 31.7425L60.1625 28.0908C58.9492 29.5987 57.4559 30.8529 56.0267 32.1479C54.4692 33.5625 52.6755 35.2454 51.3805 37.2929C50.0213 39.4367 49.193 41.9917 49.5284 45.0804C49.855 48.0729 51.2434 51.2988 53.7809 54.9242L58.5584 51.5788ZM62.2042 42.7412C63.0325 40.7462 64.7155 38.7454 67.3959 36.4529L71.1875 40.8804C68.7638 42.96 67.8946 44.2433 67.5855 44.9842C67.2821 45.7133 67.4834 46.4396 67.6875 47.1629C67.9325 48.0262 68.338 49.4671 68.3117 51.0187C68.2767 53.0779 67.5709 55.2538 65.885 57.7854L61.0317 54.5479C62.2625 52.7046 62.4667 51.6021 62.4784 50.9225C62.493 50.0621 62.2684 49.5808 61.9038 48.1225C61.5538 46.7283 61.2942 44.9229 62.2042 42.7412ZM44.9113 56.1667C46.2821 55.2508 47.9738 54.7842 49.5546 54.405L48.1925 48.7292C45.8213 49.3008 43.6688 50.0708 42.0325 51.0829C40.545 52.0046 38.6667 53.6467 38.6667 56.1667C38.6667 58.2842 40.0842 59.9758 41.773 61.0842C41.6463 61.6312 41.5827 62.191 41.5834 62.7525C41.5834 65.6108 42.8025 68.0229 44.9171 69.8108C44.605 70.6858 44.465 71.66 44.5088 72.6342C42.2425 73.0746 40.0288 73.7221 38.1796 74.5708C36.9196 75.1483 35.6771 75.8862 34.7088 76.8371C33.7346 77.7967 32.8334 79.1821 32.8334 80.9583C32.8334 82.2037 33.3846 83.21 33.9242 83.9042C34.4755 84.61 35.1842 85.2137 35.9192 85.7242C37.395 86.7479 39.3725 87.6754 41.633 88.4542C46.1771 90.0233 52.3342 91.1667 59.0834 91.1667C68.7871 91.1667 75.6005 90.0467 80.0542 88.8858C81.7467 88.4559 83.4073 87.9091 85.0242 87.2496C85.6367 86.9929 86.2492 86.7217 86.8209 86.3833C86.85 86.3658 83.8225 81.3812 83.8342 81.3725C82.1892 82.23 80.3692 82.7725 78.5842 83.2392C74.6496 84.2658 68.338 85.3333 59.0834 85.3333C52.9467 85.3333 47.4371 84.2892 43.5375 82.9417C41.9859 82.405 40.3642 81.7808 39.043 80.7833C39.3784 80.5208 39.8888 80.2029 40.6121 79.8733C42.2396 79.1267 44.4709 78.5142 46.8538 78.1496C47.5188 78.8583 48.318 79.4825 49.228 80.0162C52.0425 81.6554 55.913 82.4167 60.5417 82.4167C64.3625 82.4167 67.1275 82.0317 68.9942 81.6175C70.0325 81.39 71.0767 81.1304 72.0334 80.6608C72.0421 80.655 69.4638 75.4254 69.4638 75.4254C68.898 75.6296 68.3205 75.7929 67.7342 75.9212C66.308 76.2392 63.9717 76.5833 60.5417 76.5833C56.4205 76.5833 53.7284 75.8833 52.168 74.9762C50.9255 74.2529 50.45 73.4479 50.3538 72.5729C52.8855 73.3108 55.8809 73.6667 59.2671 73.6667C63.5342 73.6667 66.6113 73.2496 68.6821 72.8004C69.808 72.5583 70.9425 72.2783 71.9896 71.7913C72.048 71.7621 69.49 66.5208 69.49 66.5208C68.8265 66.7691 68.1437 66.9623 67.4484 67.0983C65.815 67.4513 63.1521 67.8333 59.2642 67.8333C54.5888 67.8333 51.4767 67.0633 49.6334 66.0163C48.2596 65.2346 47.6559 64.3596 47.475 63.4204C51.0917 64.3713 55.6563 64.9167 60.5417 64.9167C65.8413 64.9167 70.7559 64.275 74.4921 63.1725L72.8413 57.5783C69.7671 58.4854 65.433 59.0833 60.5417 59.0833C55.5134 59.0833 51.0771 58.4533 47.9942 57.5025C46.5359 57.0563 45.5267 56.5808 44.9142 56.1667M78.3042 58.3425C81.8421 58.0217 83.1459 58.8908 83.5659 59.34C84.0005 59.8067 84.1521 60.53 83.9625 61.2942C83.6242 62.6475 82.6705 63.96 81.1246 65.1675C79.5817 66.3721 77.6246 67.3258 75.6617 67.9821L77.505 73.515C79.92 72.71 82.5159 71.4792 84.7121 69.7671C86.8996 68.0579 88.8655 65.7275 89.6209 62.7088C90.1605 60.5504 89.9475 57.6308 87.83 55.3587C85.7009 53.0779 82.2621 52.1242 77.7763 52.5325L78.3042 58.3425Z" fill="#040C0B"/>
<defs>
<linearGradient id="paint0_linear_64_12452" x1="8.30615" y1="-0.385647" x2="117.479" y2="119.643" gradientUnits="userSpaceOnUse">
<stop stop-color="#FEEA53"/>
<stop offset="1" stop-color="#F1B306"/>
</linearGradient>
</defs>
</svg>
