<svg width="124" height="124" viewBox="0 0 124 124" fill="none" xmlns="http://www.w3.org/2000/svg">
<rect width="124" height="124" rx="8" fill="url(#paint0_linear_64_12457)"/>
<path d="M35.8664 34C35.5992 34 35.3351 34.0574 35.092 34.1683C34.8489 34.2792 34.6325 34.441 34.4573 34.6427C34.2821 34.8445 34.1522 35.0815 34.0765 35.3377C34.0008 35.5939 33.981 35.8634 34.0184 36.128L41.4851 88.3947C41.5481 88.84 41.7697 89.2476 42.1093 89.5425C42.4488 89.8375 42.8834 89.9999 43.3331 90H80.6669C81.1166 89.9999 81.5512 89.8375 81.8907 89.5425C82.2303 89.2476 82.4519 88.84 82.5149 88.3947L87.0845 56.4H68.9926L67.7494 71.3333H56.2506L54.6938 52.6667H87.6221L89.9816 36.128C90.019 35.8634 89.9992 35.5939 89.9235 35.3377C89.8478 35.0815 89.7179 34.8445 89.5427 34.6427C89.3675 34.441 89.1511 34.2792 88.908 34.1683C88.6649 34.0574 88.4008 34 88.1336 34H35.8664Z" fill="#040C0B"/>
<defs>
<linearGradient id="paint0_linear_64_12457" x1="8.30615" y1="-0.385647" x2="117.479" y2="119.643" gradientUnits="userSpaceOnUse">
<stop stop-color="#FEEA53"/>
<stop offset="1" stop-color="#F1B306"/>
</linearGradient>
</defs>
</svg>
