<svg width="124" height="124" viewBox="0 0 124 124" fill="none" xmlns="http://www.w3.org/2000/svg">
<rect width="124" height="124" rx="8" fill="url(#paint0_linear_180_20)"/>
<path d="M77.9312 39.4079V39.6004H78.3862V40.8837H78.5962V39.6004H79.0512V39.4079H77.9312ZM80.5562 39.4079L80.0458 40.4375L79.5441 39.4079H79.2903V40.8837H79.4858V39.7083L79.9874 40.7292H80.1187L80.6203 39.7083V40.8867H80.8128V39.4108L80.5562 39.4079ZM68.1399 42.3246C67.5449 43.2287 66.9033 44.2496 66.2149 45.4162L66.0983 45.5971C64.8039 47.7872 63.5735 50.0146 62.4087 52.2762C61.8623 53.3262 61.3013 54.4404 60.7258 55.6187L67.3378 54.8896C69.2628 54.0087 70.1233 53.2037 70.9603 52.0429C71.1882 51.7133 71.4119 51.3808 71.6312 51.0454C72.302 49.9867 72.9728 48.82 73.5649 47.6621C74.1395 46.5362 74.6441 45.425 75.0378 44.4246C75.2809 43.779 75.4734 43.1957 75.6153 42.6746C75.7359 42.2157 75.8331 41.7782 75.907 41.3621C73.3287 41.7996 70.1758 42.2225 68.1253 42.3246H68.1399ZM60.6908 55.6917L60.4662 56.1583C60.2387 56.6211 60.0092 57.0956 59.7778 57.5817L59.0195 59.1917L58.6345 60.0287C57.1704 63.2034 55.7827 66.4126 54.4724 69.6537C53.998 70.8126 53.5187 72.0085 53.0345 73.2412C52.597 74.3496 52.1683 75.4725 51.722 76.6362L51.6637 76.8112C51.2281 77.9662 50.7877 79.1524 50.3424 80.3696L50.3133 80.4483L52.4133 80.215C52.3719 80.2135 52.3309 80.2076 52.2908 80.1975C54.8078 79.8883 58.1533 78.01 60.3116 75.6854C61.3091 74.615 62.2133 73.3521 63.0533 71.8762C63.6735 70.7796 64.2608 69.5565 64.8149 68.2071C65.3049 67.0268 65.7716 65.7454 66.2149 64.3629C65.6433 64.6692 64.9812 64.8879 64.252 65.0483C63.99 65.1114 63.724 65.1562 63.4558 65.1825C65.8066 64.2783 67.2883 62.5429 68.3645 60.3992C67.5113 60.991 66.5531 61.4147 65.5412 61.6475C65.3701 61.6825 65.2009 61.7117 65.0337 61.735L64.9083 61.7525H64.9141C65.7249 61.4083 66.4133 61.0292 67.0083 60.5771C67.7467 60.0177 68.3764 59.3276 68.8662 58.5412L69.0499 58.2379L69.2745 57.7887C69.6789 56.9837 70.0363 56.1559 70.3449 55.3096L70.4324 55.0529C70.5878 54.6131 70.7078 54.1615 70.7912 53.7025C70.7035 53.7709 70.6119 53.8342 70.517 53.8921C69.8083 54.315 68.592 54.7 67.612 54.8837L69.5458 54.6679L67.6091 54.8808H67.5595L67.2678 54.9304C67.2834 54.9207 67.2999 54.9129 67.3174 54.9071L60.7112 55.6362L60.6733 55.7004L60.6908 55.6917ZM50.1208 80.9792C49.7785 81.9222 49.4334 82.8867 49.0853 83.8725L49.0708 83.9162L48.9249 84.3304C48.6916 84.9925 48.4874 85.5904 48.0208 86.9554C48.7908 87.3054 49.4062 88.2242 49.9895 89.2683C49.934 88.1645 49.4457 87.127 48.6303 86.3808C52.4016 86.5558 55.6595 85.5933 57.3512 82.8312C57.497 82.5862 57.6331 82.3257 57.7595 82.0496C57.0012 83.0208 56.0387 83.4321 54.2595 83.3329L54.2449 83.3387L54.2566 83.3329C56.8816 82.1546 58.2058 81.0287 59.3724 79.1533C59.6447 78.708 59.9169 78.219 60.1891 77.6862C57.8908 80.0487 55.2249 80.7196 52.4191 80.2092L50.3191 80.4367L50.1237 80.9704L50.1208 80.9792ZM70.9749 33.3267C69.8783 33.9742 68.0583 35.8058 65.8766 38.4687L67.8774 42.2429C69.2774 40.2392 70.7066 38.4308 72.1416 36.8879L72.3108 36.7071C72.2524 36.7654 72.197 36.8257 72.1445 36.8879C71.6778 37.4012 70.2662 39.0462 68.1341 42.3217C70.1845 42.2196 73.3374 41.7967 75.9099 41.3592C76.6741 37.0717 75.1574 35.1117 75.1574 35.1117C75.1574 35.1117 73.2324 31.9908 70.9691 33.3325L70.9749 33.3267ZM61.9799 51.9992C63.1776 49.7611 64.448 47.5627 65.7891 45.4075L65.9058 45.2208C66.5591 44.1922 67.2173 43.2006 67.8803 42.2458L65.8824 38.4746L65.4245 39.0346C64.847 39.7521 64.251 40.5201 63.6366 41.3387C61.548 44.1368 59.586 47.0272 57.7566 50.0012L57.6924 50.1121L60.297 55.2542C60.8492 54.1497 61.4083 53.0628 61.9741 51.9933L61.9799 51.9992ZM51.1008 76.2658C51.5616 75.0817 52.0312 73.9033 52.5095 72.6929C52.9645 71.5437 53.4428 70.3887 53.9212 69.2221C55.4006 65.6849 56.9566 62.1802 58.5878 58.7104L59.1858 57.4737C59.5358 56.765 59.877 56.0592 60.2358 55.3621C60.2462 55.3193 60.2661 55.2794 60.2941 55.2454L57.6837 50.1033L57.5553 50.3075C56.9416 51.3122 56.3417 52.3254 55.7558 53.3467C54.6339 55.2972 53.5718 57.2815 52.5708 59.2967L52.2966 59.8596C50.8746 62.7759 49.6488 65.7838 48.6274 68.8633C48.0167 70.7759 47.5104 72.7203 47.1108 74.6879L49.7241 79.8504C50.0683 78.9249 50.4222 77.9886 50.7858 77.0417L51.1008 76.2658ZM47.0874 74.8775C46.752 76.5058 46.524 78.1543 46.4049 79.8125L46.3903 79.9875C45.5737 78.675 43.3862 77.3975 43.3978 77.4092C44.9641 79.6783 46.1512 81.93 46.3291 84.1467C45.4833 84.3158 44.3341 84.0679 43.0041 83.5779C44.3895 84.8496 45.4249 85.1996 45.8333 85.2929C44.5674 85.3804 43.2374 86.2496 41.9074 87.2471C43.8558 86.4596 45.4366 86.1387 46.5624 86.4012C44.7833 91.4762 42.9749 97.0617 41.187 102.997C41.4351 102.925 41.6616 102.793 41.8468 102.613C42.0319 102.433 42.1699 102.211 42.2487 101.965C42.5695 100.891 44.6987 93.8387 48.0178 84.5667L48.3008 83.7792L48.3824 83.5517C48.7344 82.5833 49.098 81.5917 49.4733 80.5767L49.7358 79.8854V79.8737L47.1166 74.7083C47.1078 74.7667 47.0874 74.825 47.0816 74.8833L47.0874 74.8775Z" fill="#040C0B"/>
<defs>
<linearGradient id="paint0_linear_180_20" x1="8.30615" y1="-0.385647" x2="117.479" y2="119.643" gradientUnits="userSpaceOnUse">
<stop stop-color="#FEEA53"/>
<stop offset="1" stop-color="#F1B306"/>
</linearGradient>
</defs>
</svg>
