<svg width="124" height="124" viewBox="0 0 124 124" fill="none" xmlns="http://www.w3.org/2000/svg">
<rect width="124" height="124" rx="8" fill="url(#paint0_linear_64_12456)"/>
<g clip-path="url(#clip0_64_12456)">
<path d="M96.3164 55.8695C96.1222 55.7068 94.3681 54.3738 90.6029 54.3738C89.6126 54.3795 88.6245 54.4664 87.6484 54.6336C86.9347 49.657 82.8113 47.2508 82.6486 47.1141L81.6423 46.5289L80.9929 47.4723C80.1741 48.753 79.5709 50.1593 79.2074 51.6353C78.5238 54.4654 78.9476 57.1314 80.3763 59.4078C78.655 60.384 75.8646 60.6109 75.2794 60.6383H29.1793C28.892 60.6381 28.6075 60.6947 28.3422 60.805C28.0769 60.9152 27.836 61.0768 27.6335 61.2805C27.4309 61.4842 27.2707 61.726 27.1619 61.9919C27.0532 62.2578 26.9982 62.5426 27 62.8299C26.938 66.8772 27.6216 70.9013 29.0166 74.7012C30.608 78.8643 32.9773 81.9609 36.0234 83.8394C39.4714 85.9531 45.0878 87.1562 51.4179 87.1562C54.2818 87.1563 57.1397 86.895 59.956 86.3756C63.8824 85.6636 67.659 84.2891 71.1246 82.3109C73.9775 80.6534 76.5432 78.5448 78.722 76.067C82.3902 71.9367 84.5654 67.317 86.1568 63.2154H86.8062C90.7998 63.2154 93.2675 61.6213 94.6306 60.2555C95.5354 59.398 96.2442 58.3552 96.7087 57.1984L97.0013 56.3535L96.3164 55.8695Z" fill="#040C0B"/>
<path d="M33.4655 59.3162H39.6328C39.7779 59.3162 39.917 59.2586 40.0195 59.156C40.1221 59.0535 40.1797 58.9144 40.1797 58.7693V53.235C40.1797 53.0899 40.1221 52.9508 40.0195 52.8483C39.917 52.7457 39.7779 52.6881 39.6328 52.6881H33.4655C33.3204 52.6881 33.1813 52.7457 33.0788 52.8483C32.9762 52.9508 32.9186 53.0899 32.9186 53.235V58.7639C32.924 58.9072 32.9833 59.0432 33.0848 59.1446C33.1862 59.246 33.3221 59.3053 33.4655 59.3107M41.9707 59.3162H48.1395C48.2845 59.3162 48.4236 59.2586 48.5262 59.156C48.6287 59.0535 48.6864 58.9144 48.6864 58.7693V53.235C48.6864 53.0899 48.6287 52.9508 48.5262 52.8483C48.4236 52.7457 48.2845 52.6881 48.1395 52.6881H41.9707C41.8257 52.6881 41.6866 52.7457 41.584 52.8483C41.4815 52.9508 41.4239 53.0899 41.4239 53.235V58.7639C41.4293 58.9072 41.4886 59.0432 41.59 59.1446C41.6914 59.246 41.8274 59.3053 41.9707 59.3107M50.6387 59.3162H56.8047C56.9498 59.3162 57.0889 59.2586 57.1914 59.156C57.294 59.0535 57.3516 58.9144 57.3516 58.7693V53.235C57.3516 53.0899 57.294 52.9508 57.1914 52.8483C57.0889 52.7457 56.9498 52.6881 56.8047 52.6881H50.6387C50.4937 52.6881 50.3546 52.7457 50.252 52.8483C50.1494 52.9508 50.0918 53.0899 50.0918 53.235V58.7639C50.0893 58.8364 50.1018 58.9086 50.1284 58.976C50.155 59.0435 50.1952 59.1048 50.2465 59.1561C50.2978 59.2074 50.359 59.2476 50.4265 59.2742C50.494 59.3008 50.5662 59.3132 50.6387 59.3107M59.1782 59.3162H65.3469C65.4919 59.3162 65.631 59.2586 65.7336 59.156C65.8362 59.0535 65.8938 58.9144 65.8938 58.7693V53.235C65.8938 53.0899 65.8362 52.9508 65.7336 52.8483C65.631 52.7457 65.4919 52.6881 65.3469 52.6881H59.1782C59.0331 52.6881 58.894 52.7457 58.7915 52.8483C58.6889 52.9508 58.6313 53.0899 58.6313 53.235V58.7639C58.6313 58.9089 58.6889 59.048 58.7915 59.1506C58.894 59.2531 59.0331 59.3107 59.1782 59.3107M41.9707 51.4139H48.1395C48.2828 51.4085 48.4188 51.3491 48.5202 51.2477C48.6216 51.1463 48.6809 51.0103 48.6864 50.867V45.3326C48.6864 45.1876 48.6287 45.0485 48.5262 44.9459C48.4236 44.8434 48.2845 44.7857 48.1395 44.7857H41.9707C41.8257 44.7857 41.6866 44.8434 41.584 44.9459C41.4815 45.0485 41.4239 45.1876 41.4239 45.3326V50.8615C41.4346 51.003 41.4956 51.136 41.596 51.2363C41.6963 51.3366 41.8292 51.3977 41.9707 51.4084M50.6387 51.4139H56.8047C56.948 51.4085 57.084 51.3491 57.1854 51.2477C57.2868 51.1463 57.3462 51.0103 57.3516 50.867V45.3326C57.3516 45.1876 57.294 45.0485 57.1914 44.9459C57.0889 44.8434 56.9498 44.7857 56.8047 44.7857H50.6387C50.4937 44.7857 50.3546 44.8434 50.252 44.9459C50.1494 45.0485 50.0918 45.1876 50.0918 45.3326V50.8615C50.0918 51.0066 50.1494 51.1457 50.252 51.2482C50.3546 51.3508 50.4937 51.4084 50.6387 51.4084M59.1782 51.4139H65.3469C65.4902 51.4085 65.6262 51.3491 65.7276 51.2477C65.829 51.1463 65.8884 51.0103 65.8938 50.867V45.3326C65.8884 45.1893 65.829 45.0533 65.7276 44.9519C65.6262 44.8505 65.4902 44.7912 65.3469 44.7857H59.1782C59.0331 44.7857 58.894 44.8434 58.7915 44.9459C58.6889 45.0485 58.6313 45.1876 58.6313 45.3326V50.8615C58.6367 51.0048 58.696 51.1408 58.7975 51.2422C58.8989 51.3436 59.0348 51.403 59.1782 51.4084M59.1782 43.4787H65.3469C65.4919 43.4787 65.631 43.4211 65.7336 43.3185C65.8362 43.216 65.8938 43.0769 65.8938 42.9318V37.3906C65.8884 37.2473 65.829 37.1113 65.7276 37.0099C65.6262 36.9085 65.4902 36.8492 65.3469 36.8438H59.1782C59.0331 36.8438 58.894 36.9014 58.7915 37.0039C58.6889 37.1065 58.6313 37.2456 58.6313 37.3906V42.9195C58.637 43.0627 58.6965 43.1985 58.7978 43.2999C58.8991 43.4012 59.0349 43.4607 59.1782 43.4664M67.7805 59.3162H73.9492C74.0943 59.3162 74.2334 59.2586 74.3359 59.156C74.4385 59.0535 74.4961 58.9144 74.4961 58.7693V53.235C74.4961 53.0899 74.4385 52.9508 74.3359 52.8483C74.2334 52.7457 74.0943 52.6881 73.9492 52.6881H67.7805C67.6355 52.6881 67.4964 52.7457 67.3938 52.8483C67.2912 52.9508 67.2336 53.0899 67.2336 53.235V58.7639C67.239 58.9072 67.2984 59.0432 67.3998 59.1446C67.5012 59.246 67.6372 59.3053 67.7805 59.3107" fill="#040C0B"/>
</g>
<defs>
<linearGradient id="paint0_linear_64_12456" x1="8.30615" y1="-0.385647" x2="117.479" y2="119.643" gradientUnits="userSpaceOnUse">
<stop stop-color="#FEEA53"/>
<stop offset="1" stop-color="#F1B306"/>
</linearGradient>
<clipPath id="clip0_64_12456">
<rect width="70" height="70" fill="white" transform="translate(27 27)"/>
</clipPath>
</defs>
</svg>
