<svg width="124" height="124" viewBox="0 0 124 124" fill="none" xmlns="http://www.w3.org/2000/svg">
<rect width="124" height="124" rx="8" fill="url(#paint0_linear_64_12453)"/>
<path d="M45.2636 78.8H39.6318C38.1382 78.8 36.7057 78.21 35.6495 77.1598C34.5934 76.1096 34 74.6852 34 73.2V54.5333C34 53.0481 34.5934 51.6237 35.6495 50.5735C36.7057 49.5233 38.1382 48.9333 39.6318 48.9333H64.0364V45.2H60.2818V41.4667H56.5273V45.2H49.0182V39.6C49.0182 38.1148 49.6115 36.6904 50.6677 35.6402C51.7239 34.59 53.1563 34 54.65 34H69.6682C71.1618 34 72.5943 34.59 73.6505 35.6402C74.7066 36.6904 75.3 38.1148 75.3 39.6V58.2667C75.3 58.7617 75.1022 59.2365 74.7502 59.5866C74.3981 59.9367 73.9206 60.1333 73.4227 60.1333H50.8955C49.4018 60.1333 47.9693 60.7233 46.9132 61.7735C45.857 62.8237 45.2636 64.2481 45.2636 65.7333V78.8Z" fill="#040C0B"/>
<path d="M78.7363 45.2V58.2667C78.7363 59.7519 78.143 61.1763 77.0868 62.2265C76.0306 63.2767 74.5981 63.8667 73.1045 63.8667H50.5772C50.0793 63.8667 49.6018 64.0633 49.2498 64.4134C48.8977 64.7635 48.7 65.2383 48.7 65.7333V84.4C48.7 85.8852 49.2933 87.3096 50.3495 88.3598C51.4056 89.41 52.8381 90 54.3318 90H69.35C70.8436 90 72.2761 89.41 73.3322 88.3598C74.3884 87.3096 74.9818 85.8852 74.9818 84.4V78.8H67.4727V82.5333H63.7181V78.8H59.9636V75.0667H84.3681C85.8618 75.0667 87.2943 74.4767 88.3504 73.4265C89.4066 72.3763 90 70.9519 90 69.4667V50.8C90 49.3148 89.4066 47.8904 88.3504 46.8402C87.2943 45.79 85.8618 45.2 84.3681 45.2H78.7363Z" fill="#040C0B"/>
<defs>
<linearGradient id="paint0_linear_64_12453" x1="8.30615" y1="-0.385647" x2="117.479" y2="119.643" gradientUnits="userSpaceOnUse">
<stop stop-color="#FEEA53"/>
<stop offset="1" stop-color="#F1B306"/>
</linearGradient>
</defs>
</svg>
