<svg width="32" height="32" viewBox="0 0 32 32" fill="none" xmlns="http://www.w3.org/2000/svg">
<path d="M15.696 2.68423C13.963 2.66549 12.2439 2.99542 10.641 3.65441C9.0381 4.3134 7.58405 5.28799 6.36536 6.52023C5.15102 7.7509 4.1979 9.21428 3.56322 10.8225C2.92855 12.4307 2.62542 14.1506 2.67202 15.8789C2.6767 17.6308 3.04944 19.3622 3.76608 20.9609C4.48271 22.5595 5.52726 23.9898 6.83202 25.1589C6.95659 25.2658 7.05597 25.399 7.12305 25.5488C7.19013 25.6986 7.22324 25.8614 7.22002 26.0256V27.9589C7.22002 28.6082 7.50002 29.3349 8.32269 29.3349C8.50182 29.3291 8.67713 29.2816 8.83469 29.1962L11.3187 28.0976C11.5983 27.9889 11.9084 27.9889 12.188 28.0976C19.1267 29.9842 26.92 26.3509 28.8134 19.2042C29.3942 17.2244 29.4906 15.1339 29.0942 13.109C28.6979 11.0842 27.8205 9.18428 26.536 7.56956C25.2506 5.95111 23.5965 4.66371 21.712 3.8149C19.8251 2.96513 17.7626 2.57662 15.696 2.68423ZM21.688 14.9349C18.288 20.9216 18.2734 19.5749 14.004 16.7296C13.5067 16.7296 13.2587 17.1002 11.5974 18.2762C9.93602 19.4522 9.65735 19.9469 9.16002 19.4202C8.66402 18.8949 10.2 17.1469 12.2654 13.7749C14.0654 10.8056 16.5494 14.9202 18.132 15.1669C19.1371 14.6053 20.0747 13.9307 20.9267 13.1562C22.0147 12.3216 22.324 11.9962 22.7587 12.3376C23.1934 12.6776 22.8214 13.1562 21.688 14.9349Z" fill="white"/>
</svg>
