<svg width="32" height="32" viewBox="0 0 32 32" fill="none" xmlns="http://www.w3.org/2000/svg">
<g clip-path="url(#clip0_25_10931)">
<path fill-rule="evenodd" clip-rule="evenodd" d="M16 2.6665C8.63602 2.6665 2.66669 8.63584 2.66669 15.9998C2.66669 18.5198 3.36669 20.8798 4.58402 22.8905L3.39469 26.9332C3.3264 27.1653 3.32191 27.4115 3.38168 27.6459C3.44145 27.8804 3.56328 28.0944 3.73437 28.2655C3.90545 28.4366 4.11946 28.5584 4.35391 28.6182C4.58836 28.678 4.83458 28.6735 5.06669 28.6052L9.10935 27.4158C11.1876 28.6733 13.571 29.3365 16 29.3332C23.364 29.3332 29.3334 23.3638 29.3334 15.9998C29.3334 8.63584 23.364 2.6665 16 2.6665ZM12.984 19.0172C15.6814 21.7132 18.256 22.0692 19.1654 22.1025C20.548 22.1532 21.8947 21.0972 22.4187 19.8718C22.4848 19.7194 22.5089 19.552 22.4882 19.3871C22.4676 19.2222 22.403 19.0659 22.3014 18.9345C21.5707 18.0012 20.5827 17.3305 19.6174 16.6638C19.4158 16.5245 19.1681 16.4686 18.9263 16.5079C18.6844 16.5471 18.4671 16.6785 18.32 16.8745L17.52 18.0945C17.478 18.1601 17.4124 18.2071 17.3368 18.226C17.2612 18.2448 17.1813 18.234 17.1134 18.1958C16.5707 17.8852 15.78 17.3572 15.212 16.7892C14.644 16.2212 14.148 15.4665 13.8694 14.9585C13.8348 14.894 13.8248 14.8191 13.8412 14.7477C13.8577 14.6764 13.8994 14.6134 13.9587 14.5705L15.1907 13.6558C15.3665 13.503 15.48 13.2908 15.5095 13.0597C15.539 12.8285 15.4825 12.5946 15.3507 12.4025C14.7534 11.5278 14.0574 10.4158 13.048 9.6785C12.9178 9.58411 12.7652 9.52525 12.6053 9.50772C12.4454 9.49018 12.2836 9.51458 12.136 9.5785C10.9094 10.1038 9.84802 11.4505 9.89869 12.8358C9.93202 13.7452 10.288 16.3198 12.984 19.0172Z" fill="white"/>
</g>
<defs>
<clipPath id="clip0_25_10931">
<rect width="32" height="32" fill="white"/>
</clipPath>
</defs>
</svg>
